Coordinates
version=1
nRows=8
nColumns=40
inDegrees=yes

Units are S.I. units (second, meters, Newtons, ...)
If the header above contains a line with 'inDegrees', this indicates whether rotational values are in degrees (yes) or radians (no).

endheader
time	pelvis_tilt	pelvis_list	pelvis_rotation	pelvis_tx	pelvis_ty	pelvis_tz	hip_flexion_r	hip_adduction_r	hip_rotation_r	knee_angle_r	knee_angle_r_beta	ankle_angle_r	subtalar_angle_r	mtp_angle_r	hip_flexion_l	hip_adduction_l	hip_rotation_l	knee_angle_l	knee_angle_l_beta	ankle_angle_l	subtalar_angle_l	mtp_angle_l	lumbar_extension	lumbar_bending	lumbar_rotation	arm_flex_r	arm_add_r	arm_rot_r	elbow_flex_r	pro_sup_r	wrist_flex_r	wrist_dev_r	arm_flex_l	arm_add_l	arm_rot_l	elbow_flex_l	pro_sup_l	wrist_flex_l	wrist_dev_l
      2.08000000	    -30.12776218	     16.99104449	     -7.07761637	     -3.28899361	      0.92393140	      0.31987233	     -1.26074745	    -19.04413983	     -1.29383324	     16.79996581	      0.29321472	    -29.32472603	      0.00000000	      0.00000000	     85.11572682	     -3.00685260	    -10.34492891	     80.35414567	      1.40244441	     11.38786887	      0.00000000	      0.00000000	     -5.79495934	    -20.50386534	      3.05943077	     73.25077852	     -9.50971394	     11.19159112	    120.84499217	     88.25966207	      0.00000000	      0.00000000	    -73.55518079	    -18.88842430	    -31.29276743	     58.58711699	     86.89241091	      0.00000000	      0.00000000
      2.08500000	    -29.66242498	     17.09544965	     -6.52770836	     -3.25835532	      0.92786399	      0.31922587	     -1.96555095	    -19.32170958	     -2.29497410	     18.87311340	      0.32939797	    -31.19798707	      0.00000000	      0.00000000	     83.64103029	     -2.55315538	    -11.29202857	     76.08021224	      1.32785020	     10.94691911	      0.00000000	      0.00000000	     -6.41456605	    -20.81374264	      2.32162844	     70.18587965	     -9.59653302	     11.32506796	    120.92994616	     88.16149420	      0.00000000	      0.00000000	    -72.08845497	    -19.05198477	    -30.89132867	     59.14147325	     87.27815994	      0.00000000	      0.00000000
      2.09000000	    -28.76499195	     17.12446192	     -6.19326619	     -3.22755087	      0.93239531	      0.31877560	     -2.85608678	    -19.54329104	     -3.11674425	     21.40352705	      0.37356202	    -32.31789893	      0.00000000	      0.00000000	     81.53770919	     -2.12963329	    -12.27824399	     71.83903324	      1.25382766	     10.55536095	      0.00000000	      0.00000000	     -7.54550757	    -21.04454977	      1.69657775	     66.95732025	     -9.74030420	     11.36500028	    120.50231476	     88.17935931	      0.00000000	      0.00000000	    -70.22819390	    -19.38215369	    -30.19870414	     59.71743136	     87.29380359	      0.00000000	      0.00000000
      2.09500000	    -27.86067961	     16.80641435	     -5.98073090	     -3.19691351	      0.93684972	      0.31845106	     -3.45792745	    -19.34386751	     -3.52461669	     24.46264127	      0.42695363	    -32.78916434	      0.00000000	      0.00000000	     79.33776463	     -1.91867805	    -13.06829392	     67.80121007	      1.18335435	     10.06381321	      0.00000000	      0.00000000	     -8.69256528	    -20.85035229	      1.36060810	     63.52011159	     -9.97785868	     11.24061107	    119.61721683	     88.18161548	      0.00000000	      0.00000000	    -67.97137464	    -19.92895007	    -29.11466996	     60.21011090	     87.28775473	      0.00000000	      0.00000000
      2.10000000	    -26.81113590	     16.92533003	     -5.83801602	     -3.16619134	      0.94157197	      0.31812818	     -3.90180841	    -19.66984618	     -3.98623677	     27.99764530	      0.48865109	    -32.71551862	      0.00000000	      0.00000000	     76.76556400	     -1.49584589	    -14.33803310	     63.67332595	      1.11130918	      9.60998713	      0.00000000	      0.00000000	    -10.02082052	    -21.17500915	      1.01451126	     59.81870453	    -10.15087984	     10.65196568	    118.37188315	     88.17451410	      0.00000000	      0.00000000	    -65.53564850	    -20.52009124	    -28.14471341	     60.94426078	     87.27728303	      0.00000000	      0.00000000
      2.10500000	    -25.82893609	     16.42714246	     -5.72764636	     -3.13577950	      0.94587554	      0.31799235	     -4.06736790	    -19.22704554	     -3.97460149	     31.93771641	      0.55741831	    -32.19926160	      0.00000000	      0.00000000	     74.29941305	     -1.37790734	    -15.09757904	     60.01097268	      1.04738906	      9.04131674	      0.00000000	      0.00000000	    -11.28537073	    -20.78301810	      0.95695323	     56.06186255	    -10.44891433	      9.88833569	    116.62124413	     88.14798451	      0.00000000	      0.00000000	    -62.72470445	    -21.28241136	    -26.71848921	     61.50161118	     87.26456503	      0.00000000	      0.00000000
      2.11000000	    -24.89904664	     16.22133596	     -5.68867410	     -3.10552739	      0.94996852	      0.31785480	     -3.85995461	    -19.13610999	     -3.94634974	     36.29282519	      0.63342929	    -31.41043287	      0.00000000	      0.00000000	     71.75733735	     -1.20307738	    -16.23352891	     56.44319601	      0.98511961	      8.41390027	      0.00000000	      0.00000000	    -12.47107818	    -20.72234505	      1.01915872	     52.16482528	    -10.70164486	      8.76337558	    114.52434236	     88.14466625	      0.00000000	      0.00000000	    -59.72936809	    -22.07697530	    -25.30492408	     62.22265952	     87.27562553	      0.00000000	      0.00000000
      2.11500000	    -24.00245119	     15.96692207	     -5.74109731	     -3.07560331	      0.95380590	      0.31788391	     -3.35598999	    -18.94463643	     -3.61510537	     40.91892147	      0.71416991	    -30.61005810	      0.00000000	      0.00000000	     69.22474002	     -1.15654626	    -17.46143384	     53.20993913	      0.92868863	      7.84675050	      0.00000000	      0.00000000	    -13.61835940	    -20.63178041	      1.22535140	     48.30521572	    -10.93552863	      7.39021628	    111.99184537	     88.10422836	      0.00000000	      0.00000000	    -56.49565982	    -22.83605010	    -23.86231360	     63.02399530	     87.26908139	      0.00000000	      0.00000000
